<?xml version="1.0" encoding="utf-8"?>
<!-- Generator: Adobe Illustrator 22.0.1, SVG Export Plug-In . SVG Version: 6.00 Build 0)  -->
<svg version="1.1" id="Слой_1" xmlns="http://www.w3.org/2000/svg" xmlns:xlink="http://www.w3.org/1999/xlink" x="0px" y="0px"
	 viewBox="0 0 300 83" style="enable-background:new 0 0 300 83;" xml:space="preserve">
<style type="text/css">
	.st0{fill:#FFFFFF;}
	.st1{fill:#B5B5B5;}
	.st2{fill:#EAEAEA;}
	.st3{fill:#DBDBDB;}
	.st4{fill:#B7B7B7;}
</style>
<g id="Слой_x0020_1">
	<g id="_1106100624">
		<path class="st0" d="M101.2,56c0,0.1,0,0.2-0.1,0.2c0,0-0.1,0.1-0.2,0.1h-0.9c-0.1,0-0.2,0-0.2-0.1c-0.1,0-0.1-0.1-0.1-0.2v-8
			c0-0.1,0-0.2,0.1-0.2c0.1,0,0.1,0,0.2,0h0.9c0.1,0,0.2,0,0.2,0c0,0,0.1,0.1,0.1,0.2v3.1h1.4c0.2,0,0.3,0,0.5,0
			c0.2,0,0.3-0.1,0.4-0.2c0.1-0.1,0.3-0.2,0.4-0.4c0.1-0.2,0.2-0.3,0.3-0.6l0.6-2c0-0.1,0.1-0.1,0.1-0.2c0.1,0,0.1,0,0.2,0h0.9
			c0.1,0,0.1,0,0.2,0.1s0,0.1,0,0.2l-0.6,2.1c-0.1,0.3-0.2,0.7-0.4,0.9c-0.2,0.3-0.4,0.5-0.7,0.6l0,0c0.4,0.1,0.7,0.3,0.9,0.6
			c0.2,0.3,0.3,0.6,0.4,0.9l0.8,2.8c0,0.1,0,0.1,0,0.2c0,0.1-0.1,0.1-0.2,0.1h-1c0,0-0.1,0-0.1,0c-0.1,0-0.1-0.1-0.1-0.2l-0.8-2.7
			c-0.1-0.4-0.3-0.7-0.6-0.9c-0.3-0.2-0.6-0.3-1-0.3h-1.6V56z M108,48.1c0-0.1,0-0.2,0.1-0.2c0.1,0,0.1,0,0.2,0h0.9
			c0.1,0,0.2,0,0.2,0c0,0,0.1,0.1,0.1,0.2v6.2h0.1c0.3-0.4,0.5-0.8,0.7-1.1c0.2-0.3,0.5-0.7,0.7-1.1l2.4-3.8
			c0.1-0.2,0.2-0.3,0.3-0.4c0.1-0.1,0.3-0.1,0.5-0.1h0.4c0.2,0,0.3,0.1,0.5,0.2c0.1,0.1,0.2,0.3,0.2,0.5v7.6c0,0.1,0,0.2-0.1,0.2
			c0,0-0.1,0.1-0.2,0.1H114c-0.1,0-0.2,0-0.2-0.1c-0.1,0-0.1-0.1-0.1-0.2v-6.2h-0.1c-0.1,0.2-0.3,0.4-0.4,0.5
			c-0.1,0.2-0.2,0.3-0.3,0.5c-0.1,0.2-0.2,0.3-0.3,0.5c-0.1,0.2-0.2,0.4-0.4,0.5l-2.5,3.8c-0.1,0.2-0.2,0.3-0.3,0.4
			c-0.1,0.1-0.3,0.1-0.5,0.1h-0.4c-0.2,0-0.4-0.1-0.5-0.2c-0.1-0.1-0.2-0.3-0.2-0.5V48.1z M120.6,55.3c0.5,0,0.9-0.1,1.2-0.3
			c0.3-0.2,0.6-0.4,0.8-0.7c0.2-0.3,0.3-0.6,0.4-0.9c0.1-0.3,0.1-0.7,0.1-1c0-0.4,0-0.7-0.1-1.1c-0.1-0.4-0.2-0.7-0.3-0.9
			c-0.2-0.3-0.4-0.5-0.6-0.7c-0.3-0.2-0.6-0.3-1-0.3c-0.4,0-0.8,0.1-1.3,0.2c-0.5,0.2-0.9,0.4-1.3,0.7c0,0.5-0.1,0.9-0.1,1.2
			c0,0.3,0,0.6,0,0.9c0,0.4,0,0.8,0.1,1.1c0.1,0.4,0.2,0.6,0.4,0.9c0.2,0.3,0.4,0.4,0.7,0.6C119.8,55.2,120.2,55.3,120.6,55.3z
			 M121.2,48.4c0.6,0,1.2,0.1,1.6,0.3c0.4,0.2,0.8,0.5,1,0.9s0.4,0.8,0.6,1.3c0.1,0.5,0.2,1,0.2,1.5c0,0.5-0.1,0.9-0.2,1.4
			c-0.1,0.5-0.3,0.9-0.6,1.3c-0.3,0.4-0.7,0.7-1.2,1c-0.5,0.3-1.1,0.4-1.9,0.4c-0.8,0-1.4-0.1-1.9-0.4c-0.5-0.2-0.8-0.6-1.1-1
			c-0.3-0.4-0.4-0.8-0.5-1.3c-0.1-0.5-0.1-1-0.1-1.5c0-1,0-1.9,0.1-2.7c0.1-0.8,0.2-1.5,0.5-2.1c0.2-0.6,0.6-1.1,1-1.5
			c0.4-0.4,1-0.7,1.8-0.9c0.2-0.1,0.5-0.1,0.7-0.2c0.3-0.1,0.5-0.1,0.8-0.2c0.3-0.1,0.5-0.1,0.8-0.2c0.2,0,0.5-0.1,0.7-0.1
			c0.1,0,0.2,0,0.2,0c0.1,0,0.1,0.1,0.1,0.1l0.2,0.6c0.1,0.2,0,0.3-0.2,0.4c-0.8,0.2-1.5,0.3-2.1,0.5c-0.5,0.1-0.9,0.3-1.3,0.4
			c-0.3,0.2-0.6,0.4-0.8,0.6c-0.2,0.2-0.4,0.5-0.5,0.8c-0.1,0.3-0.2,0.7-0.3,1.2c0,0,0,0,0,0c0.4-0.3,0.9-0.5,1.3-0.6
			C120.4,48.5,120.8,48.4,121.2,48.4z M129.7,47.7c0.6,0,1.1,0.1,1.6,0.3c0.5,0.2,0.8,0.4,1.1,0.7c0.3,0.3,0.5,0.7,0.6,1.1
			c0.1,0.4,0.2,0.9,0.2,1.4c0,0.3,0,0.5-0.1,0.6c-0.1,0.2-0.2,0.3-0.3,0.4c-0.1,0.1-0.2,0.2-0.4,0.2c-0.1,0-0.3,0.1-0.5,0.1h-4.6
			c0,0.5,0.1,0.9,0.2,1.3c0.1,0.4,0.3,0.6,0.6,0.9c0.2,0.2,0.5,0.4,0.8,0.5c0.3,0.1,0.6,0.2,1,0.2c0.4,0,0.7-0.1,1.1-0.1
			c0.3-0.1,0.6-0.2,0.9-0.3c0.1-0.1,0.2-0.1,0.3,0.1l0.3,0.7c0.1,0.2,0,0.3-0.1,0.3c-0.4,0.2-0.8,0.4-1.3,0.5
			c-0.4,0.1-0.9,0.1-1.3,0.1c-0.6,0-1.1-0.1-1.6-0.3c-0.5-0.2-0.9-0.4-1.2-0.8c-0.3-0.4-0.6-0.8-0.8-1.4c-0.2-0.5-0.3-1.2-0.3-2
			c0-0.7,0.1-1.3,0.3-1.9c0.2-0.6,0.5-1,0.8-1.4c0.3-0.4,0.7-0.7,1.2-0.9C128.6,47.8,129.1,47.7,129.7,47.7z M131.9,51.3
			c0-0.3,0-0.7-0.1-1c-0.1-0.3-0.2-0.6-0.4-0.8s-0.4-0.4-0.7-0.6c-0.3-0.1-0.6-0.2-1.1-0.2c-0.4,0-0.7,0.1-0.9,0.2
			c-0.3,0.1-0.5,0.3-0.7,0.6c-0.2,0.2-0.3,0.5-0.5,0.8c-0.1,0.3-0.2,0.6-0.2,1H131.9z M142.1,52c0,0.6-0.1,1.2-0.2,1.7
			c-0.2,0.5-0.4,1-0.7,1.4c-0.3,0.4-0.7,0.7-1.2,1s-1,0.3-1.6,0.3c-0.3,0-0.6,0-1-0.1c-0.4,0-0.7-0.1-1.1-0.2v3.1
			c0,0.1,0,0.2-0.1,0.2c0,0-0.1,0-0.2,0h-0.9c-0.1,0-0.2,0-0.2,0c-0.1,0-0.1-0.1-0.1-0.2V48.5c0-0.1,0.1-0.2,0.2-0.3
			c0.5-0.2,1.1-0.4,1.7-0.5c0.6-0.1,1.1-0.1,1.6-0.1c0.6,0,1.2,0.1,1.7,0.3c0.5,0.2,0.9,0.5,1.2,0.9c0.3,0.4,0.5,0.9,0.7,1.4
			C142.1,50.8,142.1,51.4,142.1,52z M140.7,52c0-0.6-0.1-1.1-0.2-1.5c-0.1-0.4-0.3-0.7-0.5-1c-0.2-0.3-0.5-0.4-0.8-0.5
			c-0.3-0.1-0.7-0.2-1-0.2c-0.3,0-0.6,0-1,0.1c-0.4,0.1-0.7,0.1-0.9,0.2v5.8c0.4,0.1,0.8,0.2,1.1,0.2c0.3,0,0.6,0.1,0.8,0.1
			c0.4,0,0.7-0.1,1-0.2c0.3-0.1,0.6-0.3,0.8-0.5c0.2-0.3,0.4-0.6,0.5-1C140.6,53.1,140.7,52.6,140.7,52z M147.4,55.2
			c0.4,0,0.7-0.1,1.1-0.2c0.4-0.1,0.6-0.2,0.9-0.3c0.1-0.1,0.2-0.1,0.2,0c0,0,0.1,0.1,0.1,0.1l0.3,0.7c0.1,0.1,0.1,0.3-0.1,0.4
			c-0.4,0.2-0.9,0.4-1.3,0.5c-0.5,0.1-0.9,0.1-1.4,0.1c-1.2,0-2.1-0.4-2.7-1.1c-0.6-0.7-0.9-1.8-0.9-3.2c0-0.7,0.1-1.3,0.3-1.9
			c0.2-0.6,0.4-1,0.8-1.4s0.7-0.7,1.2-0.9c0.5-0.2,1-0.3,1.6-0.3c0.4,0,0.8,0,1.2,0.1c0.4,0.1,0.8,0.2,1.1,0.4
			c0.2,0.1,0.2,0.2,0.1,0.3l-0.3,0.7c0,0.1-0.1,0.1-0.1,0.1c0,0-0.1,0-0.2,0c-0.3-0.1-0.5-0.2-0.8-0.3c-0.3-0.1-0.6-0.1-1-0.1
			c-0.4,0-0.8,0.1-1.1,0.3c-0.3,0.2-0.6,0.4-0.8,0.7c-0.2,0.3-0.3,0.6-0.4,1c-0.1,0.4-0.1,0.8-0.1,1.2c0,0.4,0,0.8,0.1,1.2
			c0.1,0.4,0.2,0.7,0.4,1c0.2,0.3,0.4,0.5,0.8,0.7C146.6,55.2,147,55.2,147.4,55.2z M153,56c0,0.1,0,0.2-0.1,0.2
			c0,0-0.1,0.1-0.2,0.1h-0.9c-0.1,0-0.2,0-0.2-0.1c0,0-0.1-0.1-0.1-0.2v-7.6c0-0.1,0.1-0.3,0.1-0.4c0.1-0.2,0.3-0.2,0.5-0.2h5.8
			c0.3,0,0.4,0.1,0.5,0.2c0.1,0.2,0.1,0.3,0.1,0.4V56c0,0.1,0,0.2-0.1,0.2c0,0-0.1,0.1-0.2,0.1h-0.9c-0.1,0-0.2,0-0.2-0.1
			c-0.1,0-0.1-0.1-0.1-0.2v-7H153V56z M168,52c0,1.4-0.3,2.5-1,3.3c-0.7,0.8-1.6,1.1-2.8,1.1c-1.2,0-2.1-0.4-2.8-1.1s-1-1.8-1-3.3
			c0-0.7,0.1-1.3,0.3-1.9c0.2-0.5,0.5-1,0.8-1.4c0.3-0.4,0.7-0.7,1.2-0.9c0.5-0.2,1-0.3,1.5-0.3c1.2,0,2.2,0.4,2.8,1.2
			C167.7,49.6,168,50.6,168,52z M166.6,52.1c0-0.4,0-0.8-0.1-1.2c-0.1-0.4-0.2-0.7-0.4-1c-0.2-0.3-0.4-0.5-0.7-0.7
			c-0.3-0.2-0.7-0.3-1.2-0.3c-0.4,0-0.8,0.1-1.1,0.3s-0.5,0.4-0.7,0.7c-0.2,0.3-0.3,0.6-0.4,1c-0.1,0.4-0.2,0.8-0.2,1.2
			c0,0.5,0,0.9,0.1,1.3c0.1,0.4,0.2,0.7,0.4,1c0.2,0.3,0.4,0.5,0.7,0.7c0.3,0.2,0.7,0.2,1.1,0.2s0.8-0.1,1.1-0.3
			c0.3-0.2,0.6-0.4,0.7-0.7c0.2-0.3,0.3-0.7,0.4-1C166.6,52.9,166.6,52.5,166.6,52.1z M177,52c0,0.6-0.1,1.2-0.2,1.7
			c-0.2,0.5-0.4,1-0.7,1.4c-0.3,0.4-0.7,0.7-1.2,1s-1,0.3-1.6,0.3c-0.3,0-0.6,0-1-0.1c-0.4,0-0.7-0.1-1.1-0.2v3.1
			c0,0.1,0,0.2-0.1,0.2c0,0-0.1,0-0.2,0h-0.9c-0.1,0-0.2,0-0.2,0c-0.1,0-0.1-0.1-0.1-0.2V48.5c0-0.1,0.1-0.2,0.2-0.3
			c0.5-0.2,1.1-0.4,1.7-0.5c0.6-0.1,1.1-0.1,1.6-0.1c0.6,0,1.2,0.1,1.7,0.3c0.5,0.2,0.9,0.5,1.2,0.9c0.3,0.4,0.5,0.9,0.7,1.4
			C177,50.8,177,51.4,177,52z M175.6,52c0-0.6-0.1-1.1-0.2-1.5c-0.1-0.4-0.3-0.7-0.5-1c-0.2-0.3-0.5-0.4-0.8-0.5
			c-0.3-0.1-0.7-0.2-1-0.2c-0.3,0-0.6,0-1,0.1c-0.4,0.1-0.7,0.1-0.9,0.2v5.8c0.4,0.1,0.8,0.2,1.1,0.2c0.3,0,0.6,0.1,0.8,0.1
			c0.4,0,0.7-0.1,1-0.2c0.3-0.1,0.6-0.3,0.8-0.5c0.2-0.3,0.4-0.6,0.5-1C175.5,53.1,175.6,52.6,175.6,52z M182.1,56
			c0,0.1,0,0.2-0.1,0.2c-0.1,0-0.1,0.1-0.2,0.1H181c-0.1,0-0.2,0-0.2-0.1c-0.1,0-0.1-0.1-0.1-0.2v-6.9h-2.5c-0.1,0-0.2,0-0.2-0.1
			c0-0.1-0.1-0.1-0.1-0.2v-0.6c0-0.1,0-0.2,0.1-0.2c0-0.1,0.1-0.1,0.2-0.1h6.5c0.1,0,0.2,0,0.2,0.1c0,0.1,0.1,0.1,0.1,0.2v0.6
			c0,0.1,0,0.2-0.1,0.2c0,0.1-0.1,0.1-0.2,0.1h-2.6V56z M186.2,48.1c0-0.1,0-0.2,0.1-0.2c0,0,0.1,0,0.2,0h0.9c0.1,0,0.2,0,0.2,0
			c0,0,0.1,0.1,0.1,0.2v6.2h0.1c0.3-0.4,0.5-0.8,0.7-1.1c0.2-0.3,0.5-0.7,0.7-1.1l2.4-3.8c0.1-0.2,0.2-0.3,0.3-0.4
			c0.1-0.1,0.3-0.1,0.5-0.1h0.4c0.2,0,0.3,0.1,0.5,0.2c0.1,0.1,0.2,0.3,0.2,0.5v7.6c0,0.1,0,0.2-0.1,0.2c0,0-0.1,0.1-0.2,0.1h-0.9
			c-0.1,0-0.2,0-0.2-0.1c0,0-0.1-0.1-0.1-0.2v-6.2h-0.1c-0.1,0.2-0.2,0.4-0.3,0.5c-0.1,0.2-0.2,0.3-0.3,0.5
			c-0.1,0.2-0.2,0.3-0.3,0.5c-0.1,0.2-0.2,0.4-0.4,0.5l-2.5,3.8c-0.1,0.2-0.2,0.3-0.4,0.4c-0.1,0.1-0.3,0.1-0.4,0.1h-0.4
			c-0.2,0-0.4-0.1-0.5-0.2c-0.1-0.1-0.2-0.3-0.2-0.5V48.1z M201.2,51.7c0.5,0.2,0.9,0.5,1.1,0.8c0.2,0.4,0.3,0.8,0.3,1.2
			c0,0.4-0.1,0.7-0.2,1c-0.1,0.3-0.3,0.6-0.6,0.8c-0.3,0.2-0.5,0.4-0.9,0.5c-0.3,0.1-0.7,0.2-1.1,0.2h-3.7c-0.2,0-0.4-0.1-0.5-0.2
			c-0.1-0.1-0.2-0.3-0.2-0.5v-7.2c0-0.2,0.1-0.4,0.2-0.5c0.1-0.1,0.3-0.2,0.5-0.2h3.5c0.8,0,1.4,0.2,1.9,0.5
			c0.5,0.3,0.7,0.9,0.7,1.6c0,0.4-0.1,0.7-0.3,1C201.7,51.3,201.5,51.5,201.2,51.7L201.2,51.7z M196.8,51.2h2.7c0.1,0,0.2,0,0.4-0.1
			c0.1,0,0.3-0.1,0.4-0.2c0.1-0.1,0.2-0.2,0.3-0.3c0.1-0.2,0.1-0.3,0.1-0.6c0-0.3-0.1-0.5-0.3-0.7c-0.2-0.2-0.5-0.3-0.8-0.3h-2.8
			V51.2z M201.1,53.7c0-0.4-0.1-0.8-0.4-1c-0.3-0.3-0.7-0.4-1.2-0.4h-2.6v2.9h2.6c0.4,0,0.6-0.1,0.8-0.1c0.2-0.1,0.4-0.2,0.5-0.4
			c0.1-0.1,0.2-0.3,0.3-0.5C201.1,54,201.1,53.9,201.1,53.7z M205.8,56c0,0.1,0,0.2-0.1,0.2c-0.1,0-0.1,0.1-0.2,0.1h-0.8
			c-0.1,0-0.2,0-0.2-0.1c-0.1,0-0.1-0.1-0.1-0.2v-7.9c0-0.1,0-0.2,0.1-0.2c0.1,0,0.1-0.1,0.2-0.1h0.8c0.1,0,0.2,0,0.2,0.1
			c0,0,0.1,0.1,0.1,0.2v3h4.2v-3c0-0.1,0-0.2,0.1-0.2c0.1,0,0.1-0.1,0.2-0.1h0.8c0.1,0,0.2,0,0.2,0.1c0,0,0.1,0.1,0.1,0.2V56
			c0,0.1,0,0.2-0.1,0.2c0,0-0.1,0.1-0.2,0.1h-0.8c-0.1,0-0.2,0-0.2-0.1c-0.1,0-0.1-0.1-0.1-0.2v-3.7h-4.2V56z M221.5,48.1
			c0-0.1,0-0.2,0.1-0.2c0,0,0.1-0.1,0.2-0.1h0.8c0.1,0,0.2,0,0.2,0.1c0.1,0,0.1,0.1,0.1,0.2V56c0,0.1,0,0.2-0.1,0.2
			c-0.1,0-0.1,0.1-0.2,0.1h-0.8c-0.1,0-0.2,0-0.2-0.1c-0.1,0-0.1-0.1-0.1-0.2V48.1z M217.4,50.7c0.7,0,1.2,0.1,1.6,0.3
			c0.4,0.2,0.7,0.5,0.9,0.7c0.2,0.3,0.4,0.6,0.4,0.9c0.1,0.3,0.1,0.6,0.1,0.8c0,0.4-0.1,0.8-0.2,1.1c-0.1,0.3-0.3,0.6-0.6,0.9
			c-0.3,0.3-0.6,0.4-0.9,0.6c-0.4,0.1-0.7,0.2-1.1,0.2h-3.5c-0.3,0-0.5-0.1-0.6-0.3c-0.1-0.2-0.2-0.4-0.2-0.6v-7.3
			c0-0.1,0-0.2,0.1-0.2c0.1,0,0.1-0.1,0.2-0.1h0.8c0.1,0,0.2,0,0.2,0.1c0.1,0,0.1,0.1,0.1,0.2v2.6H217.4z M214.8,51.9v3.3h2.5
			c0.4,0,0.7-0.1,0.9-0.2c0.2-0.1,0.4-0.3,0.5-0.4c0.1-0.2,0.2-0.4,0.3-0.5c0-0.2,0.1-0.4,0.1-0.5c0-0.2,0-0.4-0.1-0.6
			c-0.1-0.2-0.2-0.4-0.3-0.5c-0.2-0.2-0.3-0.3-0.6-0.4c-0.2-0.1-0.5-0.1-0.8-0.1H214.8z M225,48.1c0-0.1,0-0.2,0.1-0.2
			c0,0,0.1,0,0.2,0h0.9c0.1,0,0.2,0,0.2,0c0,0,0.1,0.1,0.1,0.2v6.2h0.1c0.3-0.4,0.5-0.8,0.7-1.1s0.5-0.7,0.7-1.1l2.4-3.8
			c0.1-0.2,0.2-0.3,0.3-0.4c0.1-0.1,0.3-0.1,0.5-0.1h0.4c0.2,0,0.3,0.1,0.5,0.2c0.1,0.1,0.2,0.3,0.2,0.5v7.6c0,0.1,0,0.2-0.1,0.2
			c0,0-0.1,0.1-0.2,0.1H231c-0.1,0-0.2,0-0.2-0.1c0,0-0.1-0.1-0.1-0.2v-6.2h-0.1c-0.1,0.2-0.2,0.4-0.3,0.5c-0.1,0.2-0.2,0.3-0.3,0.5
			c-0.1,0.2-0.2,0.3-0.3,0.5c-0.1,0.2-0.2,0.4-0.4,0.5l-2.5,3.8c-0.1,0.2-0.2,0.3-0.4,0.4c-0.1,0.1-0.3,0.1-0.4,0.1h-0.4
			c-0.2,0-0.4-0.1-0.5-0.2c-0.1-0.1-0.2-0.3-0.2-0.5V48.1z M228.5,47c-0.5,0-1-0.2-1.5-0.5c-0.4-0.3-0.8-0.7-1.1-1.2
			c0,0,0-0.1-0.1-0.1c0-0.1,0-0.1,0.1-0.2l0.3-0.3c0.1-0.1,0.2-0.1,0.2-0.1c0,0,0.1,0.1,0.2,0.1c0.3,0.4,0.6,0.6,1,0.8
			c0.3,0.2,0.7,0.3,1,0.3c0.2,0,0.5-0.1,0.8-0.2c0.3-0.1,0.7-0.5,1.1-0.9c0.1-0.1,0.1-0.1,0.2-0.1c0,0,0.1,0,0.1,0.1l0.3,0.3
			c0.1,0.1,0.1,0.2,0.1,0.2c0,0.1,0,0.1-0.1,0.1c-0.5,0.6-0.9,1.1-1.4,1.3C229.3,46.8,228.9,47,228.5,47z M239.9,50.2V56
			c0,0.1,0,0.2-0.1,0.2c0,0-0.1,0.1-0.2,0.1h-0.8c-0.1,0-0.2,0-0.2-0.1c0,0-0.1-0.1-0.1-0.2v-7.6c0-0.2,0-0.3,0.1-0.4
			c0.1-0.1,0.3-0.2,0.5-0.2h0.5c0.2,0,0.3,0,0.4,0.1s0.2,0.2,0.3,0.4l1.7,3.5c0,0,0.1,0.2,0.2,0.4c0.1,0.2,0.2,0.4,0.3,0.7
			c0.1,0.2,0.2,0.5,0.3,0.7c0.1,0.2,0.2,0.3,0.2,0.4h0c0-0.1,0.1-0.2,0.2-0.4c0.1-0.2,0.2-0.5,0.4-0.8c0.1-0.3,0.3-0.5,0.4-0.8
			c0.1-0.3,0.2-0.4,0.2-0.5c0,0,0.1-0.1,0.1-0.3c0.1-0.2,0.2-0.4,0.3-0.6c0.1-0.2,0.2-0.4,0.3-0.7c0.1-0.3,0.2-0.5,0.3-0.7
			c0.1-0.2,0.2-0.4,0.3-0.6c0.1-0.2,0.1-0.3,0.1-0.3c0.1-0.2,0.2-0.3,0.3-0.4c0.1-0.1,0.2-0.1,0.4-0.1h0.5c0.3,0,0.4,0.1,0.5,0.2
			c0.1,0.1,0.1,0.3,0.1,0.4V56c0,0.1,0,0.2-0.1,0.2c0,0-0.1,0.1-0.2,0.1h-0.8c-0.1,0-0.2,0-0.2-0.1c0,0-0.1-0.1-0.1-0.2v-6h-0.1
			l-0.8,1.7c0,0-0.1,0.2-0.2,0.4c-0.1,0.2-0.2,0.5-0.4,0.8c-0.2,0.3-0.3,0.7-0.5,1c-0.2,0.3-0.3,0.6-0.4,0.8
			c-0.1,0.2-0.2,0.3-0.3,0.4s-0.2,0.1-0.4,0.1H243c-0.2,0-0.3,0-0.4-0.1s-0.2-0.2-0.3-0.4c-0.1-0.1-0.1-0.3-0.3-0.6
			s-0.3-0.6-0.4-0.9c-0.2-0.3-0.3-0.6-0.4-0.9c-0.1-0.3-0.2-0.5-0.3-0.6c0,0-0.1-0.1-0.2-0.3c-0.1-0.2-0.2-0.4-0.3-0.6
			c-0.1-0.2-0.2-0.4-0.3-0.6C240.1,50.3,240,50.2,239.9,50.2L239.9,50.2z M256.3,55.5c0,0.2-0.1,0.4-0.2,0.4c-0.5,0.2-1,0.4-1.6,0.4
			c-0.6,0.1-1.1,0.1-1.6,0.1c-0.7,0-1.3-0.1-1.7-0.2c-0.5-0.1-0.8-0.3-1.1-0.6c-0.3-0.3-0.4-0.5-0.5-0.9c-0.1-0.3-0.2-0.7-0.2-1
			s0.1-0.7,0.2-1.1c0.1-0.4,0.3-0.7,0.6-0.9c0.3-0.3,0.6-0.5,1.1-0.6c0.5-0.2,1-0.2,1.6-0.2h2v-0.4c0-0.3,0-0.5-0.1-0.7
			s-0.1-0.4-0.3-0.5c-0.1-0.2-0.3-0.3-0.6-0.3c-0.3-0.1-0.6-0.1-1-0.1c-0.4,0-0.8,0-1.2,0.1c-0.4,0.1-0.8,0.1-1,0.2
			c-0.1,0-0.2,0-0.2,0c-0.1,0-0.1-0.1-0.1-0.1l-0.2-0.7c0-0.1,0-0.1,0-0.2c0-0.1,0.1-0.1,0.2-0.1c0.4-0.2,0.9-0.3,1.4-0.4
			c0.5-0.1,1-0.1,1.5-0.1c1.1,0,1.9,0.2,2.4,0.7c0.5,0.5,0.7,1.2,0.7,2.1V55.5z M254.9,52.1H253c-0.2,0-0.4,0-0.7,0
			c-0.3,0-0.5,0.1-0.7,0.2c-0.2,0.1-0.4,0.3-0.6,0.5c-0.2,0.2-0.2,0.5-0.2,0.9c0,0.3,0.1,0.5,0.2,0.7c0.1,0.2,0.3,0.4,0.4,0.5
			c0.2,0.1,0.4,0.2,0.6,0.2c0.3,0.1,0.5,0.1,0.8,0.1c0.1,0,0.2,0,0.4,0c0.2,0,0.3,0,0.5-0.1c0.2,0,0.4-0.1,0.6-0.1
			c0.2,0,0.4-0.1,0.6-0.2V52.1z M261,49.1c-0.4,0-0.7,0.1-0.9,0.3c-0.2,0.2-0.3,0.5-0.3,0.8V56c0,0.1,0,0.2-0.1,0.2
			c-0.1,0-0.1,0.1-0.3,0.1h-0.8c-0.1,0-0.2,0-0.2-0.1c-0.1,0-0.1-0.1-0.1-0.2v-5.6c0-0.3,0-0.7,0.1-1c0.1-0.3,0.2-0.6,0.4-0.8
			c0.2-0.2,0.4-0.4,0.8-0.6s0.8-0.2,1.3-0.2h3.4c0.1,0,0.2,0,0.2,0.1c0,0.1,0.1,0.1,0.1,0.2v0.6c0,0.1,0,0.2-0.1,0.2
			c0,0-0.1,0.1-0.2,0.1H261z"/>
		<path class="st0" d="M271.6,55.5c0,0.2-0.1,0.4-0.2,0.4c-0.5,0.2-1,0.4-1.6,0.4c-0.6,0.1-1.1,0.1-1.6,0.1c-0.7,0-1.3-0.1-1.7-0.2
			c-0.4-0.1-0.8-0.3-1.1-0.6c-0.3-0.3-0.4-0.5-0.5-0.9c-0.1-0.3-0.2-0.7-0.2-1s0.1-0.7,0.2-1.1c0.1-0.4,0.3-0.7,0.6-0.9
			c0.3-0.3,0.6-0.5,1.1-0.6c0.5-0.2,1-0.2,1.6-0.2h2v-0.4c0-0.3,0-0.5-0.1-0.7s-0.1-0.4-0.3-0.5c-0.1-0.2-0.3-0.3-0.6-0.3
			s-0.6-0.1-1-0.1c-0.4,0-0.8,0-1.2,0.1c-0.4,0.1-0.8,0.1-1,0.2c-0.1,0-0.2,0-0.2,0c-0.1,0-0.1-0.1-0.1-0.1l-0.2-0.7
			c0-0.1,0-0.1,0-0.2c0-0.1,0.1-0.1,0.2-0.1c0.4-0.2,0.9-0.3,1.4-0.4c0.5-0.1,1-0.1,1.5-0.1c1.1,0,1.9,0.2,2.4,0.7
			c0.5,0.5,0.7,1.2,0.7,2.1V55.5z M270.2,52.1h-1.9c-0.2,0-0.4,0-0.7,0c-0.3,0-0.5,0.1-0.7,0.2c-0.2,0.1-0.4,0.3-0.6,0.5
			c-0.2,0.2-0.2,0.5-0.2,0.9c0,0.3,0.1,0.5,0.2,0.7c0.1,0.2,0.3,0.4,0.4,0.5c0.2,0.1,0.4,0.2,0.7,0.2c0.2,0.1,0.5,0.1,0.8,0.1
			c0.1,0,0.2,0,0.4,0c0.2,0,0.3,0,0.5-0.1c0.2,0,0.4-0.1,0.6-0.1c0.2,0,0.4-0.1,0.5-0.2V52.1z M278,51.8c0.5,0.1,0.9,0.4,1.2,0.7
			c0.3,0.4,0.4,0.8,0.4,1.3c0,0.4-0.1,0.7-0.2,1.1c-0.2,0.3-0.4,0.6-0.7,0.8c-0.3,0.2-0.7,0.4-1.1,0.6c-0.4,0.1-0.9,0.2-1.5,0.2
			c-0.5,0-1.1-0.1-1.7-0.1c-0.6-0.1-1.1-0.2-1.5-0.5c-0.1-0.1-0.2-0.2-0.1-0.3l0.4-0.7c0-0.1,0.1-0.1,0.1-0.1c0.1,0,0.1,0,0.2,0.1
			c0.3,0.1,0.6,0.2,1,0.3c0.4,0.1,0.9,0.2,1.3,0.2c0.8,0,1.4-0.2,1.8-0.5c0.4-0.3,0.5-0.7,0.5-1.1c0-0.4-0.2-0.7-0.6-1
			s-1-0.4-1.9-0.4c-0.2,0-0.3,0-0.4-0.1c-0.1-0.1-0.1-0.2-0.1-0.3v-0.3c0-0.3,0.2-0.4,0.5-0.4c1.5,0,2.2-0.4,2.2-1.2
			c0-0.4-0.2-0.6-0.5-0.8c-0.3-0.2-0.8-0.3-1.4-0.3c-0.4,0-0.8,0-1.2,0.1c-0.4,0.1-0.8,0.2-1,0.3c-0.1,0-0.1,0-0.2,0
			c-0.1,0-0.1,0-0.1-0.1l-0.3-0.7c0-0.1,0-0.2,0.1-0.3c0.4-0.2,0.8-0.4,1.3-0.5c0.5-0.1,1-0.2,1.6-0.2c0.9,0,1.7,0.2,2.2,0.6
			c0.6,0.4,0.8,0.9,0.8,1.6c0,0.4-0.1,0.8-0.4,1.1C278.8,51.3,278.4,51.6,278,51.8L278,51.8z M281.4,48.1c0-0.1,0-0.2,0.1-0.2
			c0,0,0.1,0,0.2,0h0.9c0.1,0,0.2,0,0.2,0c0,0,0.1,0.1,0.1,0.2v6.2h0.1c0.3-0.4,0.5-0.8,0.7-1.1s0.5-0.7,0.7-1.1l2.4-3.8
			c0.1-0.2,0.2-0.3,0.3-0.4c0.1-0.1,0.3-0.1,0.5-0.1h0.4c0.2,0,0.3,0.1,0.5,0.2c0.1,0.1,0.2,0.3,0.2,0.5v7.6c0,0.1,0,0.2-0.1,0.2
			c0,0-0.1,0.1-0.2,0.1h-0.9c-0.1,0-0.2,0-0.2-0.1c0,0-0.1-0.1-0.1-0.2v-6.2H287c-0.1,0.2-0.2,0.4-0.4,0.5c-0.1,0.2-0.2,0.3-0.3,0.5
			c-0.1,0.2-0.2,0.3-0.3,0.5c-0.1,0.2-0.2,0.4-0.4,0.5l-2.5,3.8c-0.1,0.2-0.2,0.3-0.4,0.4c-0.1,0.1-0.3,0.1-0.4,0.1H282
			c-0.2,0-0.4-0.1-0.5-0.2s-0.2-0.3-0.2-0.5V48.1z M292,56c0,0.1,0,0.2-0.1,0.2c0,0-0.1,0.1-0.2,0.1h-0.8c-0.1,0-0.2,0-0.2-0.1
			c-0.1,0-0.1-0.1-0.1-0.2v-7.9c0-0.1,0-0.2,0.1-0.2c0.1,0,0.1-0.1,0.2-0.1h0.8c0.1,0,0.2,0,0.2,0.1c0.1,0,0.1,0.1,0.1,0.2v3h4.2v-3
			c0-0.1,0-0.2,0.1-0.2c0.1,0,0.1-0.1,0.2-0.1h0.8c0.1,0,0.2,0,0.2,0.1c0,0,0.1,0.1,0.1,0.2V56c0,0.1,0,0.2-0.1,0.2
			c0,0-0.1,0.1-0.2,0.1h-0.8c-0.1,0-0.2,0-0.2-0.1c0,0-0.1-0.1-0.1-0.2v-3.7H292V56z"/>
	</g>
	<path class="st0" d="M119.2,26.1l-1.6-3.5h-15.1c0,0-4.5,0.3-4.5,5.3c0,5,0,7.2,0,7.2s0.8,4.7,4.5,4.7c3.8,0,15.1,0,15.1,0l1.3-4
		h-11.6c0,0-2-0.3-2-1.6c0-1.4,0-6.4,0-6.4s0-1.5,1.8-1.5C108.8,26.1,119.2,26.1,119.2,26.1z"/>
	<path class="st0" d="M120.3,22.6c0,0,1.3,8.3,7.3,8.8c0,2.8,0,7.5,0,7.5s-0.3,1.5,2.3,1.5c2.5,0,4.8,0,4.8,0v-9c0,0,5,0.6,7.5-8.8
		c-4.4,0-7,0-7,0s-2.4,6.4-4,6.3c-1.6-0.1-3.5-6.3-3.5-6.3H120.3z"/>
	<path class="st0" d="M143.3,22.6l1.1,4h12.3c0,0,1.5-0.1,1.5,1.5c0,1.6-1.5,1.3-1.5,1.3h-3.5l1.3,4h2.5c0,0,1.3,0.1,1.3,1.3
		s-1.3,1.3-1.3,1.3h-5.3v-6.3c0,0,0.1-1.5-1.8-1.5c-1.9,0-5.3,0-5.3,0v12.1h16.6c0,0,4.3-1.3,4.3-5c0-2.8-0.8-3.4-1-3.6
		c0,0,1.1-1.3,1.3-3.9c-0.5-4.3-4.5-5-4.5-5H143.3z"/>
	<path class="st0" d="M189.5,26.4l1.4-3.8h-18.6c0,0-3.9,1.1-3.8,4.8c0,1.2,0.9,3.9,0.9,3.9c0,0.2-0.1,0.5-0.3,0.8
		c-0.6,1.1-0.6,1.9-0.6,1.9v2.3c0,0,0.9,3.8,4,3.8s18.1,0,18.1,0l-1.3-4h-12.6c0,0-1-0.3-1-1.3c0-1,1-1.5,1-1.5h11.1l0.3-3.8h-11.1
		c0,0-1.3,0-1.3-1.4c0-1.4,1-1.6,1-1.6H189.5z"/>
	<path class="st0" d="M192.8,22.6l1.1,4h12.3c0,0,1.5-0.1,1.5,1.5c0,1.6-1.5,1.3-1.5,1.3h-3.5l0,3.8c2.4-0.3,2.9,2.3,4.8,6.8h7.5
		c0,0-2.1-4-3.7-6.9c2.8-1.2,3.8-2,3.8-5.4c-0.5-4.3-4.4-5-4.4-5H192.8z"/>
	<path class="st0" d="M193.9,27.9v12.1h7.5V29.9c0,0-0.4-2-2-2C197.8,27.9,193.9,27.9,193.9,27.9z"/>
	<path class="st0" d="M217.3,22.6v12.6c0,0,0.5,4.8,3.8,4.8c3.3,0,16.8,0,16.8,0l1.5-4h-13.8c0,0-1.3,0.1-1.3-1c0-1.1,0-10.8,0-10.8
		s-0.3-1.5-1.5-1.5C221.5,22.6,217.3,22.6,217.3,22.6z"/>
	<path class="st0" d="M241.6,22.6v15.8c0,0,0.3,1.5,1.8,1.5c1.5,0,5.5,0,5.5,0V24.8c0,0,0-2.3-2.3-2.3
		C244.4,22.6,241.6,22.6,241.6,22.6z"/>
	<path class="st0" d="M273.3,26.4l1.5-3.8h-18.1c0,0-4,0.8-4,4c0,3.3,0,3.5,0,3.5v9.6h6.5c0,0,1.8-0.1,1.8-1.8c0-1.6,0-4.8,0-4.8
		h12.6l-1.5-4H261v-1c0,0-0.1-1.8,2-1.8C265.1,26.4,273.3,26.4,273.3,26.4z"/>
	<path class="st1" d="M0,45.8c0,0,11.7,35.9,75.8,28.1c-28.6-1-68.3-28.1-68.3-28.1H0z"/>
	<path class="st0" d="M27.6,17.4c2,19.6-4,40.4,48.2,56.5C23.1,77.5,7.5,45.8,7.5,45.8S10.3,30.7,27.6,17.4z"/>
	<path class="st0" d="M43.2,26c6.8,0,12.3,5.5,12.3,12.2c0,6.7-5.5,12.2-12.3,12.2c-6.8,0-12.3-5.5-12.3-12.2
		C30.9,31.4,36.4,26,43.2,26z"/>
	<path class="st2" d="M45.5,29.5c1.3,2.5,0,5.7-3,7.2c-2.9,1.5-6.3,0.8-7.6-1.7c-1.3-2.5,0-5.7,3-7.2C40.8,26.3,44.2,27,45.5,29.5z"
		/>
	<path class="st0" d="M56.5,57.1c0,0,5.3,0.3,8.8-0.3c3.5-0.5,0.3-32.4-6.8-38.9S42.2,4.6,38.2,3.9c-4-0.8-10.6-3.3-19.3-3.3
		C35.2,8.1,64,27,56.5,57.1z"/>
	<path class="st0" d="M18.8,0.6c0,0,39.2-6.8,66.1,31.6c-4.8,22.6-19.6,24.6-19.6,24.6S70.8,10.9,18.8,0.6z"/>
	<path class="st0" d="M156.4,77.2c0.2,0,0.3,0.1,0.4,0.2c0.1,0.1,0.1,0.3,0.1,0.5c0,0.4-0.2,0.9-0.4,1.5c-0.3,0.6-0.7,1.1-1.1,1.6
		c0,0.1,0,0.3,0.1,0.4c0.1,0.1,0.2,0.2,0.3,0.2c0.3,0,0.7-0.3,1.1-0.7c0.4-0.5,0.8-1.1,1.3-1.8c0.4-0.7,0.9-1.5,1.4-2.3
		c0.5-0.8,1-1.6,1.4-2.3c0.5-0.7,1-1.3,1.4-1.8c0.5-0.5,0.9-0.7,1.3-0.7c0.5,0,0.9,0.2,1.3,0.5c0.4,0.3,0.6,0.8,0.6,1.3
		c0,0.5-0.2,1.1-0.5,1.9c-0.3,0.7-0.7,1.4-1,2.2s-0.7,1.4-1,2c-0.3,0.6-0.5,1.1-0.5,1.4c0,0.2,0.1,0.4,0.2,0.5
		c0.1,0.1,0.2,0.1,0.4,0.1c0.2,0,0.4-0.1,0.7-0.3c0.3-0.2,0.5-0.4,0.8-0.8c0.3-0.3,0.6-0.7,0.9-1.1c0.3-0.4,0.6-0.9,0.8-1.3
		c0.1-0.1,0.1-0.2,0.2-0.2c0.1,0,0.2,0.1,0.2,0.2c0.1,0.1,0.1,0.3,0.1,0.5c0,0.4-0.1,0.9-0.4,1.3c-0.3,0.5-0.6,0.9-1,1.3
		c-0.4,0.4-0.9,0.7-1.4,1c-0.5,0.3-1,0.4-1.5,0.4c-0.5,0-1-0.2-1.4-0.5c-0.4-0.3-0.5-0.8-0.5-1.4c0-0.5,0.2-1.1,0.5-1.8
		c0.3-0.7,0.7-1.4,1-2.1c0.4-0.7,0.7-1.4,1-2c0.3-0.6,0.5-1.1,0.5-1.4c0-0.1-0.1-0.2-0.2-0.2c-0.3,0-0.6,0.2-1,0.7
		c-0.3,0.5-0.7,1-1.1,1.7c-0.4,0.7-0.8,1.4-1.2,2.2c-0.4,0.8-0.9,1.6-1.4,2.3c-0.5,0.7-1,1.3-1.5,1.7c-0.5,0.5-1.1,0.7-1.6,0.7
		c-0.4,0-0.7-0.2-0.9-0.6c-0.2-0.4-0.3-0.9-0.3-1.4c0-0.4,0-0.8,0.1-1.2c0.1-0.4,0.2-0.7,0.4-1.1c0.2-0.3,0.4-0.6,0.6-0.8
		C155.8,77.3,156.1,77.2,156.4,77.2z M168.3,77.6c-0.3,0.8-0.4,1.4-0.4,2c0,0.7,0.2,1.3,0.5,1.6c0.3,0.4,0.8,0.5,1.3,0.5
		c0.5,0,1-0.1,1.5-0.4c0.5-0.2,1-0.5,1.4-0.9c0.4-0.4,0.8-0.8,1.2-1.2c0.4-0.4,0.7-0.9,0.9-1.3c0.1-0.1,0.1-0.2,0.2-0.2
		c0.1,0,0.1,0,0.2,0.1c0.1,0.1,0.1,0.2,0.1,0.3c0,0.5-0.2,1-0.6,1.5c-0.4,0.5-0.9,1-1.4,1.3c-0.6,0.4-1.2,0.7-1.9,0.9
		c-0.7,0.2-1.3,0.4-1.9,0.4c-1.1,0-2-0.3-2.6-1c-0.6-0.7-0.9-1.5-0.9-2.6c0-1,0.3-1.9,0.8-3c0.3-0.7,0.7-1.3,1.1-1.8
		c0.4-0.5,0.9-1,1.3-1.3c0.4-0.4,0.9-0.6,1.3-0.8c0.4-0.2,0.8-0.3,1.2-0.3c0.3,0,0.6,0.1,0.9,0.2c0.3,0.2,0.6,0.3,0.8,0.6
		c0.3,0.2,0.5,0.5,0.6,0.8c0.2,0.3,0.3,0.6,0.3,0.9c0,0.4-0.1,0.9-0.3,1.4s-0.5,1-0.9,1.4c-0.4,0.4-0.8,0.8-1.2,1.1
		c-0.5,0.3-1,0.4-1.5,0.4C169.7,78.4,169,78.2,168.3,77.6z M168.5,77c0.3,0.2,0.6,0.3,0.9,0.3c0.4,0,0.8-0.2,1.2-0.5
		c0.4-0.3,0.8-0.7,1.1-1.2c0.3-0.4,0.6-0.9,0.8-1.3c0.2-0.4,0.3-0.8,0.3-1c0-0.3-0.1-0.4-0.4-0.4c-0.2,0-0.4,0.1-0.8,0.3
		c-0.3,0.2-0.6,0.4-1,0.8s-0.7,0.7-1,1.1c-0.4,0.5-0.7,0.9-1,1.5l-0.1,0.2L168.5,77z M178.5,74.5c0.3-0.3,0.6-0.7,1-1
		c0.4-0.4,0.8-0.7,1.1-0.9c0.4-0.3,0.8-0.5,1.1-0.7c0.4-0.2,0.6-0.3,0.9-0.3c0.4,0,0.6,0.2,0.8,0.6c0.2,0.4,0.3,0.8,0.3,1.3
		c0,0.3,0,0.6-0.1,0.8c0.3-0.3,0.7-0.6,1-0.9c0.4-0.3,0.7-0.6,1.1-0.8c0.4-0.2,0.7-0.4,1-0.5c0.3-0.1,0.6-0.2,0.8-0.2
		c0.3,0,0.5,0.1,0.7,0.4c0.2,0.3,0.2,0.6,0.2,1c0,0.2,0,0.5-0.1,0.7c0,0.3-0.1,0.5-0.2,0.7c-0.2,0.4-0.4,0.9-0.7,1.4
		c-0.3,0.5-0.6,1-1,1.5c-0.3,0.5-0.6,1-0.8,1.5c-0.2,0.5-0.4,0.9-0.4,1.3c0,0.4,0.1,0.7,0.3,0.9c0.2,0.2,0.4,0.3,0.7,0.3
		c0.3,0,0.5-0.1,0.8-0.3c0.3-0.2,0.6-0.5,0.8-0.8c0.3-0.3,0.6-0.7,0.8-1.2c0.3-0.4,0.5-0.9,0.8-1.3c0.1-0.1,0.2-0.2,0.2-0.2
		c0.1,0,0.2,0,0.2,0.1c0.1,0.1,0.1,0.2,0.1,0.4c0,0.5-0.1,1-0.4,1.5c-0.3,0.5-0.6,0.9-1,1.3c-0.4,0.4-0.9,0.7-1.4,1
		c-0.5,0.3-1,0.4-1.5,0.4c-0.8,0-1.5-0.2-1.9-0.6c-0.4-0.4-0.7-1-0.7-1.7c0-0.4,0.1-0.8,0.3-1.2c0.2-0.4,0.4-0.9,0.6-1.4
		c0.2-0.5,0.5-0.9,0.8-1.4c0.3-0.5,0.6-0.9,0.8-1.3c0.3-0.4,0.5-0.8,0.6-1c0.2-0.3,0.3-0.5,0.3-0.6c0-0.1,0-0.1-0.1-0.1
		c-0.2,0-0.5,0.1-0.9,0.4c-0.5,0.3-1.1,0.8-1.8,1.5c-1.1,1.1-2,2.3-2.7,3.5c-0.7,1.2-1.3,2.5-1.9,3.7c-0.1,0.2-0.2,0.3-0.3,0.3
		c-0.1,0-0.3-0.1-0.5-0.4c-0.2-0.3-0.3-0.7-0.3-1.1c0-0.5,0.2-1.2,0.5-1.9c0.2-0.5,0.5-1.1,0.8-1.7c0.4-0.6,0.7-1.2,1.1-1.8
		c0.4-0.6,0.7-1.1,0.9-1.5s0.4-0.8,0.4-0.9c0-0.1-0.1-0.1-0.2-0.1c-0.2,0-0.6,0.2-1.2,0.6c-0.6,0.4-1.2,1-2,1.9
		c-0.8,0.9-1.5,1.9-2.1,3c-0.6,1.2-1.2,2.4-1.7,3.6c-0.1,0.2-0.2,0.3-0.3,0.3c-0.1,0-0.2,0-0.3-0.1c-0.1-0.1-0.2-0.2-0.3-0.4
		s-0.1-0.3-0.2-0.5c-0.1-0.2-0.1-0.3-0.1-0.5c0-0.3,0.1-0.7,0.3-1.4c0.2-0.7,0.5-1.4,0.9-2.3c0.4-0.9,0.9-1.8,1.4-2.8
		c0.5-1,1.1-1.9,1.8-2.8c0.1-0.1,0.2-0.2,0.3-0.2c0.1,0,0.2,0.1,0.2,0.2c0.1,0.1,0.1,0.2,0.2,0.4c0.1,0.1,0.1,0.3,0.1,0.5
		c0,0.2,0,0.3,0,0.5C178.8,73.5,178.7,74,178.5,74.5z M201.5,72c0.5,0.3,0.8,0.6,1.1,1c0.3,0.4,0.5,0.8,0.5,1.2
		c0,0.2-0.1,0.5-0.2,0.9c-0.1,0.4-0.3,0.8-0.4,1.2c-0.2,0.4-0.3,0.7-0.5,1c-0.2,0.3-0.3,0.5-0.3,0.5c-0.3,0-0.5-0.2-0.8-0.5
		c-0.2-0.3-0.3-0.6-0.3-1c0-0.2,0.1-0.5,0.2-0.8c0.1-0.3,0.2-0.6,0.3-0.9c0.1-0.3,0.2-0.5,0.3-0.8c0.1-0.3,0.2-0.5,0.2-0.6
		c0-0.2-0.1-0.3-0.3-0.3c-0.1,0-0.4,0.2-0.9,0.6c-0.5,0.4-0.9,0.9-1.4,1.5c-0.5,0.6-1,1.4-1.3,2.2c-0.4,0.8-0.6,1.7-0.6,2.6
		c0,0.6,0.1,1.1,0.4,1.5c0.3,0.4,0.7,0.6,1.1,0.6c0.5,0,1.1-0.1,1.6-0.3c0.5-0.2,1-0.5,1.4-0.9c0.5-0.4,0.9-0.8,1.2-1.2
		c0.4-0.4,0.7-0.9,1-1.3c0.1-0.1,0.1-0.2,0.3-0.2c0,0,0.1,0,0.2,0.1c0.1,0.1,0.1,0.2,0.1,0.3c0,0.5-0.2,0.9-0.5,1.4
		c-0.3,0.5-0.8,1-1.3,1.4c-0.5,0.4-1.2,0.8-1.8,1c-0.7,0.3-1.3,0.4-1.9,0.4c-1.2,0-2-0.3-2.6-1c-0.6-0.6-0.9-1.5-0.9-2.5
		c0-1,0.3-2,0.8-3c0.4-0.8,0.8-1.4,1.3-2c0.5-0.5,0.9-1,1.4-1.3c0.5-0.3,0.9-0.6,1.2-0.7c0.4-0.1,0.7-0.2,0.8-0.2
		C200.9,71.8,201.2,71.9,201.5,72z M214.5,68.6c-0.3,0-0.6-0.1-0.8-0.2c-0.2-0.1-0.4-0.2-0.6-0.3c-0.2-0.1-0.3-0.3-0.4-0.4
		s-0.1-0.3-0.1-0.4c0-0.1,0.1-0.2,0.3-0.2c0.5,0,1-0.1,1.6-0.3c0.5-0.2,1.1-0.4,1.7-0.5c0.6-0.2,1.1-0.3,1.6-0.5
		c0.5-0.2,1-0.2,1.5-0.2c0.4,0,0.7,0.1,1.1,0.2c0.4,0.1,0.7,0.3,1,0.6c0.3,0.3,0.5,0.6,0.7,1.1c0.2,0.5,0.3,1,0.3,1.7
		c0,0.6-0.1,1.1-0.3,1.6c-0.2,0.5-0.5,1-0.8,1.4c-0.4,0.5-0.9,1-1.6,1.6c-0.7,0.6-1.5,1.1-2.5,1.5c0.4,0.2,0.8,0.5,1.1,0.9
		c0.3,0.4,0.5,0.9,0.5,1.5c0,0.7-0.2,1.4-0.7,2c-0.5,0.6-1.1,1.1-1.8,1.6s-1.4,0.8-2.2,1c-0.8,0.2-1.4,0.3-2,0.3
		c-0.4,0-0.7-0.1-1-0.2s-0.7-0.4-0.9-0.6c-0.3-0.3-0.5-0.5-0.7-0.8c-0.2-0.3-0.3-0.6-0.3-0.9c0-0.4,0.1-0.9,0.4-1.6
		c0.3-0.7,0.6-1.5,0.9-2.4s0.8-1.7,1.2-2.5c0.4-0.8,0.9-1.7,1.4-2.5C213.6,70.1,214,69.4,214.5,68.6z M213.3,74.5
		c1.2-0.3,2.3-0.7,3.2-1.2c1-0.5,1.8-1,2.5-1.6c0.7-0.6,1.2-1.2,1.6-1.8s0.6-1.1,0.6-1.6c0-0.4-0.1-0.7-0.4-0.9s-0.5-0.3-0.9-0.3
		c-0.3,0-0.6,0.1-0.9,0.1c-0.3,0.1-0.7,0.2-1,0.3c-0.3,0.1-0.7,0.2-1,0.3c-0.3,0.1-0.7,0.2-1,0.3v0.2c0,0.6-0.3,1.3-0.8,2.3
		C214.8,71.9,214.1,73.1,213.3,74.5z M214.2,76c-0.1,0-0.2,0-0.3,0s-0.2,0-0.3,0c-0.4,0-0.8-0.1-1.1-0.2c-0.2,0.4-0.4,0.7-0.6,1.2
		c-0.2,0.4-0.4,0.8-0.6,1.3c-0.2,0.4-0.4,0.8-0.5,1.2c-0.1,0.4-0.2,0.7-0.2,1.1c0,0.4,0.2,0.6,0.7,0.6c0.5,0,1.2-0.1,1.9-0.4
		c0.7-0.3,1.3-0.6,1.9-1c0.6-0.4,1.1-0.8,1.5-1.3c0.4-0.5,0.6-0.9,0.6-1.4c0-0.3-0.2-0.6-0.5-0.8c-0.3-0.2-0.8-0.4-1.6-0.4L214.2,76
		z M229.4,73.7c0.1-0.2,0.3-0.4,0.4-0.7c0.1-0.2,0.2-0.4,0.4-0.6c0.1-0.2,0.2-0.3,0.3-0.4c0.1-0.1,0.2-0.2,0.3-0.2
		c0.1,0,0.3,0.1,0.3,0.2s0.1,0.3,0.2,0.5s0.1,0.3,0.1,0.5c0,0.2,0,0.2,0,0.3c0,0.4-0.2,1-0.5,1.6c-0.4,0.7-0.7,1.4-1.2,2.1
		s-0.8,1.5-1.2,2.2c-0.4,0.7-0.5,1.4-0.5,1.9c0,0.5,0.2,0.8,0.6,0.8c0.3,0,0.6-0.1,0.9-0.3c0.3-0.2,0.6-0.5,0.9-0.8
		c0.3-0.3,0.6-0.7,0.9-1.2c0.3-0.4,0.6-0.9,0.8-1.4c0.1-0.1,0.1-0.2,0.2-0.2c0.2,0,0.2,0.2,0.2,0.6c0,0.4-0.1,0.9-0.4,1.3
		c-0.2,0.5-0.5,0.9-0.9,1.3s-0.8,0.7-1.3,1c-0.5,0.3-0.9,0.4-1.4,0.4c-0.8,0-1.3-0.2-1.7-0.6c-0.4-0.4-0.6-0.9-0.6-1.5
		c-0.4,0.5-0.9,1-1.5,1.4s-1.2,0.6-1.8,0.6c-0.7,0-1.2-0.2-1.6-0.7c-0.4-0.5-0.6-1.1-0.6-1.8c0-0.6,0.1-1.2,0.3-1.9
		c0.2-0.7,0.6-1.4,1.1-2c1.1-1.5,2.1-2.6,3.1-3.3c1-0.7,1.8-1,2.5-1c0.5,0,0.9,0.2,1.2,0.5c0.3,0.3,0.4,0.7,0.4,1.2V73.7z
		 M227.1,77.7c0.6-0.9,0.9-1.7,1.2-2.4c0.2-0.7,0.4-1.2,0.4-1.5c0-0.4-0.1-0.6-0.4-0.6c-0.3,0-0.8,0.2-1.4,0.7
		c-0.6,0.5-1.2,1.1-1.8,1.8c-0.6,0.7-1.2,1.6-1.6,2.4c-0.5,0.9-0.7,1.7-0.7,2.5c0,0.3,0.1,0.5,0.2,0.7c0.1,0.2,0.3,0.2,0.5,0.2
		c0.5,0,1.1-0.4,1.8-1.1C225.8,79.8,226.5,78.8,227.1,77.7z M240.3,71.7c0.4,0,0.7,0.1,0.9,0.3c0.2,0.2,0.4,0.5,0.4,0.9
		c0,0.2-0.1,0.6-0.3,1.2c-0.2,0.6-0.5,1.3-0.8,2c-0.3,0.7-0.6,1.5-0.9,2.3c-0.3,0.8-0.6,1.4-0.8,2c0.4-0.3,0.8-0.7,1.3-1.3
		c0.5-0.6,1.1-1.3,1.7-2c0.6-0.8,1.2-1.6,1.8-2.4c0.6-0.9,1.2-1.7,1.6-2.5c0.1-0.2,0.3-0.4,0.4-0.4c0.1,0,0.2-0.1,0.3-0.1
		c0.2,0,0.3,0,0.5,0.1c0.2,0.1,0.3,0.2,0.4,0.3c0.1,0.1,0.2,0.3,0.3,0.4s0.1,0.3,0.1,0.4c0,0.3-0.1,0.6-0.3,1
		c-0.2,0.4-0.4,0.9-0.6,1.4c-0.3,0.5-0.5,1-0.8,1.5c-0.3,0.5-0.6,1.1-0.8,1.6c-0.3,0.5-0.5,1-0.6,1.4c-0.2,0.4-0.3,0.8-0.3,1.1
		c0,0.3,0,0.5,0.1,0.6c0.1,0.1,0.3,0.2,0.5,0.2c0.3,0,0.6-0.1,0.9-0.3c0.3-0.2,0.6-0.5,0.9-0.8c0.3-0.3,0.6-0.7,0.9-1.2
		s0.6-0.9,0.8-1.4c0.1-0.1,0.2-0.2,0.3-0.2c0.1,0,0.1,0.1,0.2,0.1c0.1,0.1,0.1,0.3,0.1,0.5c0,0.5-0.1,0.9-0.4,1.4
		c-0.3,0.5-0.6,0.9-1,1.3c-0.4,0.4-0.9,0.7-1.4,1c-0.5,0.2-1,0.4-1.5,0.4c-0.8,0-1.3-0.2-1.7-0.6c-0.4-0.4-0.5-0.9-0.5-1.5
		c0-0.3,0.1-0.6,0.2-1c0.1-0.4,0.3-0.8,0.5-1.2c0.2-0.4,0.5-0.9,0.8-1.5c0.3-0.5,0.6-1.1,0.9-1.7c-0.3,0.4-0.6,0.8-1,1.3
		c-0.4,0.5-0.8,1-1.3,1.6c-0.4,0.6-0.9,1.1-1.3,1.6c-0.4,0.5-0.9,1-1.3,1.4c-0.4,0.4-0.7,0.8-1,1c-0.3,0.3-0.5,0.4-0.7,0.4
		c-0.3,0-0.5-0.1-0.7-0.3c-0.2-0.2-0.3-0.5-0.3-0.8c0-0.3,0.1-0.8,0.3-1.3c0.2-0.6,0.4-1.2,0.7-1.9c0.3-0.6,0.5-1.3,0.7-1.9
		c0.2-0.6,0.4-1.2,0.5-1.6c-0.6,0.8-1.2,1.7-1.8,2.7c-0.6,0.9-1.2,1.8-1.8,2.6c-0.6,0.8-1.2,1.4-1.9,2c-0.6,0.5-1.2,0.8-1.9,0.8
		c-0.4,0-0.7-0.2-0.9-0.6c-0.2-0.4-0.3-0.9-0.3-1.4c0-0.4,0-0.8,0.1-1.2c0.1-0.4,0.2-0.8,0.4-1.1c0.2-0.3,0.4-0.6,0.6-0.8
		c0.2-0.2,0.5-0.3,0.8-0.3c0.2,0,0.3,0.1,0.4,0.2c0.1,0.1,0.1,0.3,0.1,0.5c0,0.4-0.1,0.9-0.4,1.5c-0.3,0.6-0.7,1.2-1.1,1.7
		c0,0.1,0,0.3,0.1,0.4c0.1,0.2,0.2,0.2,0.3,0.2c0.3,0,0.8-0.3,1.4-0.9c0.6-0.6,1.2-1.4,1.9-2.3c0.7-0.9,1.4-1.9,2.1-3
		c0.7-1.1,1.4-2.1,2-3.1c0.1-0.2,0.3-0.4,0.3-0.5C240,71.7,240.1,71.7,240.3,71.7z"/>
	<path class="st0" d="M253,80c-0.2,0.3-0.5,0.6-0.7,0.9c-0.3,0.3-0.6,0.6-0.9,0.8c-0.3,0.2-0.6,0.4-1,0.6s-0.7,0.2-1,0.2
		c-0.7,0-1.2-0.2-1.4-0.6c-0.3-0.4-0.4-0.9-0.4-1.4c0-0.5,0.1-1,0.3-1.7c0.2-0.6,0.5-1.3,0.8-2.1c0.3-0.7,0.8-1.5,1.3-2.4
		c0.5-0.8,1-1.7,1.6-2.5c0.1-0.1,0.2-0.2,0.3-0.2s0.2,0.1,0.3,0.2c0.1,0.1,0.2,0.2,0.2,0.4c0.1,0.1,0.1,0.3,0.1,0.5
		c0,0.2,0,0.3,0,0.4c0,0.7-0.3,1.5-0.8,2.4c-0.3,0.5-0.6,1-0.9,1.5c-0.3,0.5-0.6,1-0.8,1.5c-0.2,0.5-0.4,0.9-0.5,1.3
		c-0.1,0.4-0.2,0.8-0.2,1.1c0,0.5,0.2,0.8,0.5,0.8c0.4,0,0.9-0.3,1.4-0.7c0.5-0.5,1-1.1,1.5-1.9c0.5-0.8,1-1.6,1.5-2.5
		c0.5-0.9,1-1.7,1.4-2.4c0.4-0.7,0.8-1.4,1.1-1.9c0.3-0.5,0.5-0.8,0.7-0.8c0.2,0,0.3,0.2,0.5,0.4c0.1,0.3,0.2,0.6,0.2,1
		c0,0.3,0,0.5-0.1,0.8c-0.1,0.3-0.2,0.6-0.3,0.9c-0.2,0.5-0.5,1-0.8,1.6c-0.3,0.6-0.7,1.1-1,1.7c-0.3,0.6-0.6,1.1-0.8,1.6
		c-0.2,0.5-0.3,1-0.3,1.3c0,0.6,0.2,0.9,0.7,0.9c0.3,0,0.6-0.1,0.9-0.3c0.3-0.2,0.6-0.5,0.9-0.8s0.6-0.7,0.9-1.2
		c0.3-0.5,0.6-0.9,0.8-1.4c0.1-0.1,0.2-0.2,0.3-0.2c0.1,0,0.1,0.1,0.2,0.1c0.1,0.1,0.1,0.3,0.1,0.5c0,0.5-0.1,0.9-0.4,1.4
		c-0.3,0.5-0.6,0.9-1,1.3c-0.4,0.4-0.9,0.7-1.4,1c-0.5,0.3-1,0.4-1.5,0.4c-0.8,0-1.3-0.2-1.7-0.6c-0.4-0.4-0.5-0.9-0.5-1.5
		c0-0.1,0-0.2,0-0.3C253,80.1,253,80,253,80z M267.8,65.8c0.1-0.2,0.2-0.2,0.3-0.2c0.1,0,0.3,0.1,0.4,0.4c0.1,0.2,0.1,0.5,0.1,0.9
		c0,0.5-0.1,0.9-0.2,1.4c-0.2,0.5-0.4,1-0.8,1.6c-0.4,0.7-0.8,1.4-1.2,2.2c-0.5,0.8-0.9,1.6-1.4,2.5c-0.5,0.9-0.9,1.7-1.3,2.6
		c-0.4,0.9-0.8,1.7-1.1,2.4c-0.1,0.2-0.2,0.2-0.2,0.2c-0.1,0-0.3-0.1-0.4-0.4c-0.2-0.3-0.2-0.6-0.2-1c0-0.3,0.1-0.7,0.3-1.3
		c0.2-0.6,0.4-1.2,0.7-2c0.3-0.7,0.7-1.5,1.1-2.3c0.4-0.8,0.8-1.7,1.3-2.5c0.4-0.8,0.9-1.6,1.3-2.4C267,67.1,267.4,66.4,267.8,65.8z
		 M261.9,80.7c0.1,0.1,0.1,0.2,0.1,0.3c0,0.1,0,0.2,0,0.3c0,0.3-0.1,0.6-0.2,0.9c-0.2,0.3-0.4,0.4-0.6,0.4c-0.3,0-0.6-0.2-0.8-0.5
		c-0.3-0.3-0.4-0.6-0.4-1c0-0.3,0.1-0.6,0.2-0.8c0.2-0.3,0.4-0.4,0.6-0.4c0.2,0,0.4,0.1,0.6,0.2C261.6,80.2,261.8,80.4,261.9,80.7z"
		/>
	<path class="st3" d="M27.6,17.4h-9.8c0,0-15.8,14.1-17.8,28.4c3.9,0,7.5,0,7.5,0L27.6,17.4z"/>
	<path class="st4" d="M41.8,29.6c0.6,1.2,0,2.7-1.4,3.4c-1.4,0.7-3,0.4-3.6-0.8c-0.6-1.2,0-2.7,1.4-3.4
		C39.6,28.1,41.2,28.5,41.8,29.6z"/>
	<path class="st0" d="M298.6,26.4l1.4-3.8h-18.6c0,0-3.9,1.1-3.8,4.8c0,1.2,0.9,3.9,0.9,3.9c0,0.2-0.1,0.5-0.3,0.8
		c-0.6,1.1-0.6,1.9-0.6,1.9v2.3c0,0,0.9,3.8,4,3.8s18.1,0,18.1,0l-1.3-4h-12.6c0,0-1-0.3-1-1.3c0-1,1-1.5,1-1.5h11l0.3-3.8h-11.1
		c0,0-1.3,0-1.3-1.4c0-1.4,1-1.6,1-1.6H298.6z"/>
	<path class="st0" d="M138.9,68.6c-0.1,0-0.1,0-0.2,0c-0.1,0-0.1,0-0.1,0c-0.3,0-0.5,0-0.7-0.1c-0.1-0.1-0.2-0.1-0.2-0.2
		c0,0,0.1-0.1,0.2-0.3c0.1-0.2,0.3-0.4,0.5-0.6c0.2-0.2,0.4-0.5,0.7-0.8c0.3-0.3,0.5-0.5,0.7-0.8s0.5-0.4,0.6-0.6
		c0.2-0.2,0.3-0.2,0.4-0.2c0.1,0,0.3,0.1,0.4,0.2c0.1,0.1,0.2,0.2,0.3,0.4c0.1,0.2,0.2,0.3,0.2,0.5c0.1,0.2,0.1,0.3,0.1,0.5
		c0,0.5-0.3,1.3-0.8,2.3c-0.5,1.1-1.2,2.3-2,3.7c-0.8,1.4-1.6,3-2.5,4.7c-0.9,1.7-1.7,3.4-2.5,5.2c-0.1,0.2-0.2,0.3-0.3,0.3
		c-0.1,0-0.3-0.2-0.4-0.5c-0.2-0.3-0.2-0.7-0.2-1c0-0.2,0-0.5,0.1-0.8c0-0.3,0.1-0.6,0.2-1c0.1-0.5,0.4-1.1,0.8-1.9
		c0.4-0.8,0.8-1.8,1.3-2.8s1.1-2.1,1.6-3.2C137.8,70.6,138.4,69.5,138.9,68.6z M150.1,67c-0.9,0.2-1.8,0.4-2.6,0.5
		c-0.8,0.2-1.4,0.3-1.9,0.3c-0.4,0-0.7-0.1-1-0.2c-0.3-0.1-0.5-0.2-0.7-0.4c-0.2-0.2-0.4-0.4-0.5-0.5c-0.1-0.2-0.2-0.4-0.2-0.5
		c0-0.1,0.1-0.2,0.3-0.2c0.6,0,1.3-0.1,1.9-0.1c0.7-0.1,1.3-0.2,1.9-0.3c0.6-0.1,1.2-0.2,1.7-0.3c0.5-0.1,0.9-0.1,1.2-0.1
		c0.2,0,0.4,0.1,0.6,0.3c0.2,0.2,0.4,0.4,0.5,0.7c0.2,0.3,0.3,0.6,0.4,0.9c0.1,0.3,0.2,0.5,0.2,0.7c0,0.1-0.1,0.3-0.2,0.4
		c-0.1,0.1-0.3,0.3-0.5,0.5c-0.8,0.8-1.7,1.7-2.8,2.8c-1,1.1-2,2.3-3.1,3.6c-1,1.2-2,2.5-2.9,3.7c-0.9,1.2-1.7,2.4-2.3,3.4
		c-0.1,0.1-0.2,0.2-0.3,0.2c-0.1,0-0.2-0.1-0.3-0.3c-0.1-0.2-0.2-0.5-0.2-0.8c0-0.3,0.1-0.6,0.2-1c0.1-0.4,0.3-0.8,0.6-1.3
		c0.3-0.5,0.6-1.1,1.1-1.8c0.4-0.7,0.9-1.4,1.5-2.1c0.6-0.7,1.1-1.5,1.8-2.3c0.6-0.8,1.3-1.5,1.9-2.2c0.6-0.7,1.3-1.4,1.9-2
		C148.9,68,149.5,67.5,150.1,67z"/>
</g>
</svg>
