<?xml version="1.0" encoding="utf-8"?>
<!-- Generator: Adobe Illustrator 22.0.1, SVG Export Plug-In . SVG Version: 6.00 Build 0)  -->
<svg version="1.1" id="Layer_1" xmlns="http://www.w3.org/2000/svg" xmlns:xlink="http://www.w3.org/1999/xlink" x="0px" y="0px"
	 viewBox="0 0 154.5 60.6" style="enable-background:new 0 0 154.5 60.6;" xml:space="preserve">
<style type="text/css">
	.st0{fill:url(#SVGID_1_);}
	.st1{fill:url(#SVGID_2_);}
	.st2{fill:#ED2525;}
	.st3{fill:#FCB91C;}
	.st4{fill:#FFFFFF;}
</style>
<g>
	
		<linearGradient id="SVGID_1_" gradientUnits="userSpaceOnUse" x1="20.6" y1="763.4571" x2="20.6" y2="755.399" gradientTransform="matrix(1 0 0 1 0 -730)">
		<stop  offset="0" style="stop-color:#C0181E"/>
		<stop  offset="0.1798" style="stop-color:#C4271E"/>
		<stop  offset="0.5273" style="stop-color:#CD4F1D"/>
		<stop  offset="1" style="stop-color:#DD8F1C"/>
	</linearGradient>
	<path class="st0" d="M17.4,37.3c3.9-3.9,0.3-10.9-1.4-12.7c2-7.3,9.2-0.1,9.2-0.1s-5.9,8-1.4,12.8C19.1,36.2,17.4,37.3,17.4,37.3z"
		/>
	
		<linearGradient id="SVGID_2_" gradientUnits="userSpaceOnUse" x1="5.1" y1="750.0964" x2="5.1" y2="757.0132" gradientTransform="matrix(1 0 0 1 0 -730)">
		<stop  offset="0" style="stop-color:#C0181E"/>
		<stop  offset="1" style="stop-color:#DD8F1C"/>
	</linearGradient>
	<path class="st1" d="M1.9,16.3C5.8,20.2,2.2,27.2,0.5,29c2,7.3,9.2,0.1,9.2,0.1s-5.9-8-1.4-12.8C3.5,17.4,1.9,16.3,1.9,16.3z"/>
	<path class="st2" d="M20.6,43.8c2.3,0,4.1-1.8,4.1-4.1s-1.8-4.1-4.1-4.1s-4.1,1.8-4.1,4.1S18.3,43.8,20.6,43.8z"/>
	<path class="st2" d="M5.1,17.9c2.3,0,4.1-1.8,4.1-4.1S7.4,9.7,5.1,9.7S1,11.5,1,13.8C1,16,2.8,17.9,5.1,17.9z"/>
	<path class="st3" d="M5.1,36.2c2.8,0,5.1-2.3,5.1-5.1S7.9,26,5.1,26S0,28.3,0,31.1C0.1,33.9,2.3,36.2,5.1,36.2z"/>
	<path class="st4" d="M5.1,52.7c2.3,0,4.1-1.8,4.1-4.1s-1.8-4.1-4.1-4.1S1,46.3,1,48.6S2.8,52.7,5.1,52.7z"/>
	<path class="st4" d="M35.1,35.3c2.3,0,4.1-1.8,4.1-4.1s-1.8-4.1-4.1-4.1S31,28.9,31,31.2C31,33.4,32.8,35.3,35.1,35.3z"/>
	<path class="st3" d="M20.6,27.5c2.8,0,5.1-2.3,5.1-5.1s-2.3-5.1-5.1-5.1s-5.1,2.3-5.1,5.1S17.8,27.5,20.6,27.5z"/>
	<path class="st4" d="M66.6,37.7v-2.5H55.5c-0.6,0-1.1-0.1-1.5-0.2c-0.4-0.2-0.7-0.4-0.9-0.7c-0.4-0.5-0.6-1.1-0.6-2
		c0-0.3,0-0.5,0.1-0.8s0.2-0.6,0.4-0.8c0.1-0.2,0.2-0.3,0.4-0.5c0.1-0.2,0.4-0.4,0.7-0.6l11.4-9.3c0.4-0.3,0.8-0.6,1.1-0.7
		s0.7-0.2,1.1-0.2s0.8,0.1,1.2,0.2s0.8,0.4,1.1,0.7c0.3,0.3,0.5,0.7,0.7,1.2s0.3,1.1,0.3,2v14.2H66.6L66.6,37.7z M66.6,25.5
		c0-0.2,0-0.3-0.1-0.4S66.3,25,66.3,25c-0.1,0-0.1,0-0.2,0c0,0-0.1,0.1-0.2,0.1l-6.7,5.3c-0.1,0.1-0.2,0.2-0.2,0.3
		c0,0.2,0.1,0.3,0.3,0.3h7.3L66.6,25.5L66.6,25.5z M86.5,19.9c1.1,0,2.1,0.2,2.8,0.5c0.8,0.3,1.4,0.8,1.9,1.4c0.6,0.6,1,1.3,1.3,2.2
		c0.3,0.8,0.5,1.7,0.5,2.6c0,0.8-0.1,1.6-0.4,2.3c-0.2,0.7-0.6,1.4-1,2c-0.6,0.7-1.2,1.3-2.1,1.8c-0.8,0.4-1.9,0.6-3.1,0.6h-7.3v4.5
		h-4.3V21.1c0-0.7,0.3-1.1,1-1.1L86.5,19.9L86.5,19.9z M86.6,28.8c0.5,0,0.9-0.1,1.1-0.2c0.3-0.1,0.5-0.4,0.7-0.6
		c0.3-0.4,0.4-0.8,0.4-1.3s-0.1-1-0.4-1.3c-0.2-0.2-0.4-0.4-0.7-0.6c-0.3-0.1-0.7-0.2-1.1-0.2h-7.1c-0.2,0-0.3,0.1-0.3,0.4v3.9
		L86.6,28.8L86.6,28.8z M101.5,37.7c-1,0-1.8-0.1-2.5-0.4c-0.7-0.2-1.2-0.6-1.6-1.1s-0.7-1.1-0.9-1.8c-0.2-0.7-0.3-1.6-0.3-2.5v-12
		h4.3v11.6c0,0.7,0.1,1.1,0.3,1.3c0.2,0.2,0.6,0.4,1.1,0.4H113v4.6h-11.5V37.7z M137,36.9c0.1,0.1,0.1,0.3,0.2,0.4
		c0,0.1,0.1,0.3,0.1,0.4h-4.8c0-0.1-0.1-0.2-0.1-0.3s-0.1-0.2-0.1-0.3l-0.8-2.2h-9.4l-0.8,2.1c0,0.1-0.1,0.2-0.1,0.3
		s-0.1,0.2-0.1,0.3h-4.9c0-0.1,0.1-0.3,0.1-0.4s0.1-0.3,0.2-0.4l5.7-14.2c0.5-1.1,1.1-1.9,1.8-2.5c0.7-0.5,1.7-0.8,2.8-0.8
		c1.1,0,2.1,0.3,2.8,0.8s1.3,1.4,1.8,2.5L137,36.9L137,36.9z M129.9,31l-2.5-6.4c-0.1-0.2-0.2-0.3-0.3-0.4c-0.1-0.1-0.3-0.1-0.4-0.1
		s-0.3,0-0.4,0.1s-0.2,0.2-0.3,0.4l-2.4,6.4H129.9L129.9,31z M135,20.5l7.2,8.9v8.3h4.3v-8l7.5-9.2c0.1-0.1,0.2-0.3,0.3-0.3
		c0.1-0.1,0.1-0.2,0.2-0.3h-5.2c-0.1,0.2-0.2,0.4-0.4,0.6l-4,4.9c-0.1,0.1-0.2,0.2-0.3,0.2s-0.2-0.1-0.3-0.2l-4-4.9
		c-0.1-0.1-0.2-0.2-0.2-0.3c-0.1-0.1-0.1-0.2-0.1-0.3h-5.3c0,0.1,0.1,0.2,0.1,0.3C134.7,20.2,134.8,20.3,135,20.5z"/>
</g>
</svg>
