<?xml version="1.0" encoding="UTF-8"?>
<!DOCTYPE svg PUBLIC "-//W3C//DTD SVG 1.1//EN" "http://www.w3.org/Graphics/SVG/1.1/DTD/svg11.dtd">
<!-- Creator: CorelDRAW 2018 (64-Bit) -->
<svg xmlns="http://www.w3.org/2000/svg" xml:space="preserve" width="163.726mm" height="24.3074mm" version="1.1" style="shape-rendering:geometricPrecision; text-rendering:geometricPrecision; image-rendering:optimizeQuality; fill-rule:evenodd; clip-rule:evenodd"
viewBox="0 0 19454.17 2888.23"
 xmlns:xlink="http://www.w3.org/1999/xlink">
 <defs>
  <style type="text/css">
   <![CDATA[
    .fil2 {fill:#B3B3B3}
    .fil1 {fill:#E31837}
    .fil0 {fill:white}
   ]]>
  </style>
 </defs>
 <g id="Layer_x0020_1">
  <metadata id="CorelCorpID_0Corel-Layer"/>
  <g id="_1984359869504">
   <g>
    <g>
     <path class="fil0" d="M11567.2 340.73l98.53 0c0,0 -121.85,572.39 -126.37,595.7 -1.51,9.03 -6.77,15.04 -15.79,15.04l-157.95 0c-6.77,0 -13.53,-5.26 -15.04,-12.79 -2.26,-15.79 -78.22,-477.61 -78.22,-477.61l-9.78 0c0,0 -75.96,461.82 -78.22,477.61 -0.75,7.52 -7.52,12.79 -15.79,12.79l-157.2 0c-9.03,0 -13.53,-6.01 -15.79,-15.04 -4.52,-23.31 -126.37,-595.7 -126.37,-595.7l98.53 0 101.54 523.49 34.6 0 93.26 -523.49 139.15 0 94.02 523.49 33.84 0 103.04 -523.49z"/>
     <polygon class="fil0" points="11768.77,340.73 12185.46,340.73 12185.46,418.2 11857.53,418.2 11857.53,600.22 12148.61,600.22 12148.61,679.21 11857.53,679.19 11857.53,867.98 12184.72,867.99 12184.72,949.98 11769.53,949.96 11769.53,340.73 "/>
     <path class="fil0" d="M12350.93 340.73l0 67.69c0,50.39 -7.52,53.4 -77.47,145.91l-38.36 -26.33c33.09,-70.7 37.61,-71.46 37.61,-123.35l0 -64.69 78.22 0.01 0 0.75z"/>
     <path class="fil0" d="M12520.17 949.21l-88.76 0 0 -608.48 310.65 0c106.05,0 163.97,56.42 163.97,155.69l0 71.46c0,79.73 -35.35,128.61 -103.04,145.16l121.85 236.17 -94.78 0 -117.34 -224.89 -191.8 0 0 224.89 -0.75 0zm306.12 -400.89l0 -37.61c0,-66.94 -28.58,-94.77 -96.27,-94.77l-209.85 0 0 230.16 209.85 0c67.69,0.75 96.27,-30.83 96.27,-97.78z"/>
     <polygon class="fil0" points="13042.9,340.73 13459.58,340.73 13459.58,418.2 13131.65,418.2 13131.65,600.22 13422.74,600.22 13422.74,679.21 13131.65,679.19 13131.65,867.98 13458.83,867.99 13458.83,949.98 13043.65,949.96 13043.65,340.73 "/>
     <path class="fil0" d="M14169.61 773.97l-264 0 -57.16 174.5 -100.04 0c0,0 191.8,-575.39 197.81,-593.44 2.26,-11.29 5.26,-15.04 23.31,-15.04l134.64 0c18.05,0 21.06,3.77 24.07,15.04 6.01,18.05 198.56,593.44 198.56,593.44l-100.04 0 -57.16 -174.5zm-242.19 -84.99l219.63 0 -91.01 -274.54 -36.86 0 -91.77 274.54z"/>
     <polygon class="fil0" points="14428.36,340.73 14517.1,340.73 14517.1,870.25 14836.02,870.25 14836.02,949.23 14428.36,949.21 "/>
     <polygon class="fil0" points="14922.51,340.73 15011.27,340.73 15011.27,870.25 15330.17,870.25 15330.17,949.23 14922.51,949.21 "/>
     <path class="fil0" d="M15837.12 614.51l266.24 0 -9.03 313.64c0,15.04 -11.29,16.55 -15.04,16.55 0,0 -161.72,9.03 -306.87,9.03 -104.55,0.75 -163.21,-64.69 -163.21,-163.21l0 -290.33c0,-99.29 59.42,-163.97 163.21,-163.21 167.72,0 290.32,4.52 290.32,4.52l-0.75 76.72 -267.74 -0.01c-67.69,0 -96.27,27.83 -96.27,94.77l0 265.51c0,66.94 28.58,95.52 96.27,94.77l218.11 -1.51 4.52 -172.99 -179.75 -4.52 0 -79.73z"/>
     <path class="fil0" d="M16607.31 773.97l-264.01 0 -57.16 174.5 -100.04 0c0,0 191.8,-575.39 197.81,-593.44 2.26,-11.29 5.26,-15.04 23.31,-15.04l134.65 0c18.05,0 21.06,3.77 24.07,15.04 6.01,18.05 198.56,593.44 198.56,593.44l-100.04 0 -57.16 -174.5zm-242.19 -84.99l219.63 0 -91.01 -274.54 -36.86 0 -91.77 274.54z"/>
     <path class="fil0" d="M17376.75 346.74c0,0 1.51,-6.01 9.03,-6.01l121.09 0 0 608.48 -88.75 0 0 -461.06 -6.02 0 -170.73 452.04c0,0 -1.51,9.03 -9.78,9.03l-90.26 -0.01c-9.03,0 -10.53,-9.03 -10.53,-9.03l-170.73 -452.04 -6.02 0.01 0 461.06 -88.75 0 0 -608.48 121.09 0c6.77,0 9.03,6.01 9.03,6.01l185.03 482.13 11.28 0 185.03 -482.13z"/>
     <polygon class="fil0" points="17652.03,340.73 18068.73,340.73 18068.73,418.2 17740.79,418.2 17740.79,600.22 18031.87,600.22 18031.87,679.21 17740.79,679.19 17740.79,867.98 18067.98,867.99 18067.98,949.98 17652.79,949.96 17652.79,340.73 "/>
     <path class="fil0" d="M18286.1 949.21l-88.76 0 0 -608.48 310.65 0c106.05,0 163.97,56.42 163.97,155.69l0 71.46c0,79.73 -35.35,128.61 -103.79,145.16l121.85 236.17 -94.8 0 -117.34 -224.89 -191.79 0 0 224.89zm306.12 -400.89l0 -37.61c0,-66.94 -28.58,-94.77 -96.27,-94.77l-209.85 0 0 230.16 209.85 0c66.93,0.75 96.27,-30.83 96.27,-97.78z"/>
     <path class="fil0" d="M19220.25 418.95l-257.98 0c-72.96,0 -88.75,9.78 -88.75,71.46l0 21.82c0,31.59 9.78,38.36 48.89,45.88 0,0 179.76,33.85 230.16,43.62 77.47,15.04 105.3,44.38 105.3,118.08l0 82.74c0,108.31 -45.13,151.18 -180.51,150.43 -151.18,0 -296.34,-7.52 -296.34,-7.52l0.75 -75.96 285.8 0c79.73,0 101.54,-16.55 101.54,-81.99l0 -51.14c0,-27.83 -7.52,-45.88 -43.62,-53.4 -51.9,-10.53 -182.02,-33.85 -217.37,-39.86 -82.74,-15.04 -124.86,-24.07 -124.86,-109.81l0 -51.9c0,-108.31 46.64,-145.91 182.02,-145.16 151.18,0 256.49,7.52 256.49,7.52l-1.52 75.21z"/>
     <path class="fil0" d="M19400.01 849.93c30.09,0 54.16,22.56 54.16,53.4 0,29.34 -23.31,51.9 -54.16,51.9 -29.34,0 -52.65,-22.56 -52.65,-51.9 -0.75,-30.82 22.56,-53.4 52.65,-53.4z"/>
    </g>
    <rect class="fil0" x="10373.55" y="192.55" width="40.61" height="908.59"/>
    <g>
     <g>
      <g>
       <g>
        <g>
         <g>
          <path class="fil1" d="M2218.82 1101.15l330.94 0c0,0 74.47,-248.97 80.48,-269.27 15.79,-9.03 701.76,-400.89 701.76,-400.89l71.46 -237.68 -330.95 0c0,0 -30.09,100.78 -35.35,118.84 -15.04,8.27 -497.92,283.55 -515.97,294.09 -15.79,-14.29 -300.11,-259.49 -326.43,-282.06 9.03,-29.34 39.86,-130.87 39.86,-130.87l-30.85 -0.01 -300.87 0 -67.69 227.9c0,0 438.5,379.84 466.33,403.9 -11.28,36.86 -82.72,276.05 -82.72,276.05z"/>
          <path class="fil1" d="M5008.51 732.6l-110.56 368.55 1499.77 0 71.46 -239.94c0,0 -1028.93,0 -1138.75,0 72.21,-30.83 501.69,-210.6 501.69,-210.6 0,0 -342.23,-191.04 -391.87,-218.12 48.13,0 1157.56,0 1157.56,0l71.46 -239.94 -30.85 0 -1468.95 0 -107.56 358.02c0,0 104.55,59.42 161.72,91.77 -69.2,28.58 -215.11,90.26 -215.11,90.26z"/>
         </g>
         <g>
          <polygon class="fil1" points="600.96,192.56 273.03,192.56 -0,1101.15 328.68,1101.15 "/>
          <path class="fil1" d="M1739.7 192.56l-300.09 0c0,0 -91.01,303.11 -100.78,333.96 -21.06,0 -540.04,0 -752.15,0l-72.21 239.94c204.59,0 707.02,0 752.9,0 -18.81,61.68 -100.78,333.96 -100.78,333.96l330.93 -0.01 272.28 -907.84 -30.09 0z"/>
         </g>
         <path class="fil1" d="M3778.01 432.5c25.57,0 781.46,0 838.63,0 -4.52,14.29 -18.05,59.42 -22.56,75.21 -15.04,6.01 -276.02,115.83 -282.05,118.08 -4.52,0 -340.72,0 -506.19,0l-71.46 239.94c191.04,0 631.04,0 631.04,0l517.48 -217.37 136.89 -455.8 -30.09 0 -1470.42 0 -273.03 908.59 330.94 0 200.82 -668.65z"/>
        </g>
        <g>
         <path class="fil1" d="M6645.18 797.28l-91.01 303.86 330.19 0.01c0,0 56.42,-188.78 69.2,-230.91 -99.29,-27.08 -201.58,-51.9 -308.39,-72.97z"/>
         <path class="fil1" d="M7709.46 852.95l476.86 -194.81 139.9 -466.33 -31.59 -0.01 -1468.94 0 -142.91 476.86c294.84,10.53 656.62,56.42 1026.67,184.28zm-623.53 -420.45c24.82,0 781.46,0 837.88,0 -10.53,35.35 -21.06,69.95 -24.82,84.24 -15.79,6.01 -251.97,106.81 -257.24,109.07 -6.01,0 -558.08,0 -613.73,0 12.04,-40.62 49.64,-168.49 57.91,-193.31z"/>
        </g>
       </g>
       <g>
        <path class="fil2" d="M9795.15 2888.23c-224.89,-667.91 -565.61,-1141.75 -952.22,-1477.21 345.98,-336.96 582.16,-793.51 625.03,-1411.02 0,0 -141.41,614.51 -898.81,1200.43 -1126.71,-767.19 -2474.55,-549.06 -2474.55,-549.06 896.55,63.94 1628.38,373.81 2197.76,743.87 -710.03,450.52 -1834.47,840.14 -3607.28,852.92 0,0 2536.99,382.09 3918.67,-633.3 796.52,606.99 1191.38,1273.38 1191.38,1273.38z"/>
       </g>
      </g>
     </g>
    </g>
    <g>
     <path class="fil0" d="M9738.75 192.56l0 31.59 -61.68 -0.01 0 160.21 -38.36 0 0 -160.21 -61.68 0 0 -31.58 161.72 0zm207.59 192.55l-6.77 -112.82c-0.75,-15.04 -0.75,-33.09 -1.51,-53.4l-2.25 -0.01c-5.26,17.3 -10.53,39.86 -16.55,57.16l-34.6 106.81 -39.86 0 -34.6 -109.81c-3.77,-15.04 -9.03,-37.61 -13.53,-54.16l-2.26 0c0,17.3 -0.75,36.1 -1.51,53.4l-6.77 112.82 -36.85 0.01 14.29 -192.55 57.16 0 33.09 94.02c4.52,15.04 7.52,29.34 12.79,48.89l0.75 -0.01c5.26,-17.3 9.03,-33.85 13.53,-48.13l33.09 -94.77 54.92 0 15.04 192.55 -37.61 0z"/>
    </g>
   </g>
  </g>
 </g>
</svg>
