<svg xmlns="http://www.w3.org/2000/svg" width="30" height="32" viewBox="0 0 30 32"><g><g><path fill="#cdcdcd" d="M13.974 3.993c.395.568.737 1.138 1.026 1.665a18.56 18.56 0 0 1 1.025-1.665c.831-1.196 1.725-2.14 2.658-2.802C19.951.289 21.288-.104 22.66.022c1.164.107 2.106.483 2.802 1.119a3.466 3.466 0 0 1 1.13 2.376c.083 1.238-.431 2.586-1.412 3.701l-.052.058H30v9.091h-1.16V32H1.16V16.367H0v-9.09h4.873a3.972 3.972 0 0 1-.053-.059c-.98-1.115-1.495-2.463-1.412-3.7a3.467 3.467 0 0 1 1.13-2.378C5.234.505 6.178.13 7.341.022c1.37-.126 2.708.267 3.975 1.168.933.663 1.828 1.607 2.658 2.803zm-11.6 10.048h25.252V9.603H2.374zm10.991 6.991L15 20.29l1.635.742v-4.665h-3.27zM9.325 7.276h3.856a16.95 16.95 0 0 0-1.193-2.008c-.674-.965-1.374-1.706-2.081-2.206-.793-.56-1.56-.796-2.345-.724-.62.057-1.106.231-1.405.505a1.184 1.184 0 0 0-.38.826c-.042.625.273 1.384.842 2.03.663.755 1.62 1.311 2.706 1.577zm17.14 22.397V16.367H19.01v8.307L15 22.854l-4.008 1.82v-8.307H3.534v13.306zM16.819 7.276h3.857c1.085-.266 2.042-.822 2.706-1.576.569-.647.883-1.406.842-2.03a1.184 1.184 0 0 0-.38-.827c-.299-.274-.785-.448-1.405-.505-.79-.073-1.562.168-2.36.735-.71.505-1.414 1.255-2.09 2.229-.477.687-.87 1.384-1.17 1.974z"/></g></g></svg>