<?xml version="1.0" encoding="UTF-8"?>
<!DOCTYPE svg PUBLIC "-//W3C//DTD SVG 1.1//EN" "http://www.w3.org/Graphics/SVG/1.1/DTD/svg11.dtd">
<!-- Creator: CorelDRAW 2018 (64-Bit) -->
<svg xmlns="http://www.w3.org/2000/svg" xml:space="preserve" width="84.0253mm" height="24.3075mm" version="1.1" style="shape-rendering:geometricPrecision; text-rendering:geometricPrecision; image-rendering:optimizeQuality; fill-rule:evenodd; clip-rule:evenodd"
viewBox="0 0 4390.98 1270.26"
 xmlns:xlink="http://www.w3.org/1999/xlink">
 <defs>
  <style type="text/css">
   <![CDATA[
    .fil0 {fill:white}
   ]]>
  </style>
 </defs>
 <g id="Layer_x0020_1">
  <metadata id="CorelCorpID_0Corel-Layer"/>
  <g id="_1984361337504">
   <g>
    <g>
     <g>
      <g>
       <g>
        <path class="fil0" d="M975.85 484.29l145.55 0c0,0 32.75,-109.5 35.39,-118.43 6.95,-3.97 308.63,-176.31 308.63,-176.31l31.43 -104.53 -145.55 0c0,0 -13.23,44.33 -15.55,52.27 -6.62,3.64 -218.99,124.71 -226.92,129.34 -6.95,-6.29 -131.99,-114.13 -143.56,-124.05 3.97,-12.9 17.53,-57.56 17.53,-57.56l-13.57 -0.01 -132.32 0 -29.77 100.23c0,0 192.85,167.05 205.09,177.63 -4.96,16.21 -36.38,121.41 -36.38,121.41z"/>
        <path class="fil0" d="M2202.77 322.2l-48.63 162.09 659.6 0 31.43 -105.52c0,0 -452.53,0 -500.82,0 31.76,-13.56 220.64,-92.62 220.64,-92.62 0,0 -150.51,-84.02 -172.35,-95.93 21.17,0 509.1,0 509.1,0l31.43 -105.52 -13.57 0 -646.05 0 -47.3 157.46c0,0 45.98,26.13 71.12,40.36 -30.43,12.57 -94.61,39.7 -94.61,39.7z"/>
       </g>
       <g>
        <polygon class="fil0" points="264.3,84.69 120.08,84.69 -0,484.29 144.56,484.29 "/>
        <path class="fil0" d="M765.13 84.69l-131.99 0c0,0 -40.02,133.31 -44.33,146.88 -9.26,0 -237.51,0 -330.8,0l-31.76 105.52c89.98,0 310.95,0 331.13,0 -8.27,27.13 -44.33,146.88 -44.33,146.88l145.55 -0.01 119.75 -399.27 -13.23 0z"/>
       </g>
       <path class="fil0" d="M1661.58 190.21c11.25,0 343.69,0 368.84,0 -1.99,6.29 -7.94,26.13 -9.92,33.08 -6.62,2.64 -121.4,50.94 -124.05,51.93 -1.99,0 -149.85,0 -222.62,0l-31.43 105.52c84.02,0 277.54,0 277.54,0l227.59 -95.6 60.21 -200.46 -13.23 0 -646.7 0 -120.08 399.6 145.55 0 88.32 -294.08z"/>
      </g>
      <g>
       <path class="fil0" d="M2922.57 350.64l-40.02 133.64 145.22 0.01c0,0 24.81,-83.03 30.43,-101.55 -43.67,-11.91 -88.66,-22.83 -135.63,-32.09z"/>
       <path class="fil0" d="M3390.65 375.13l209.73 -85.68 61.53 -205.09 -13.9 -0.01 -646.05 0 -62.85 209.73c129.67,4.63 288.79,24.81 451.54,81.05zm-274.23 -184.91c10.92,0 343.69,0 368.51,0 -4.63,15.55 -9.26,30.76 -10.92,37.05 -6.95,2.64 -110.82,46.97 -113.13,47.97 -2.64,0 -245.45,0 -269.93,0 5.29,-17.87 21.83,-74.1 25.47,-85.02z"/>
      </g>
     </g>
     <g>
      <path class="fil0" d="M4307.94 1270.26c-98.91,-293.75 -248.76,-502.15 -418.79,-649.68 152.16,-148.2 256.04,-348.99 274.89,-620.57 0,0 -62.19,270.26 -395.3,527.95 -495.53,-337.41 -1088.32,-241.48 -1088.32,-241.48 394.31,28.12 716.17,164.4 966.59,327.15 -312.27,198.15 -806.81,369.5 -1586.49,375.12 0,0 1115.77,168.05 1723.45,-278.53 350.31,266.95 523.97,560.04 523.97,560.04z"/>
     </g>
    </g>
   </g>
  </g>
  <g id="_1984364132192">
   <path class="fil0" d="M4283.14 84.69l0 13.9 -27.13 -0.01 0 70.46 -16.87 0 0 -70.46 -27.13 0 0 -13.89 71.12 0zm91.3 84.68l-2.98 -49.62c-0.33,-6.62 -0.33,-14.55 -0.66,-23.48l-0.99 -0.01c-2.32,7.61 -4.63,17.53 -7.28,25.14l-15.22 46.97 -17.53 0 -15.22 -48.3c-1.66,-6.62 -3.97,-16.54 -5.95,-23.82l-0.99 0c0,7.61 -0.33,15.88 -0.66,23.48l-2.98 49.62 -16.21 0.01 6.29 -84.68 25.14 0 14.55 41.35c1.99,6.62 3.31,12.9 5.62,21.5l0.33 -0.01c2.32,-7.61 3.97,-14.89 5.95,-21.17l14.55 -41.68 24.15 0 6.62 84.68 -16.54 0z"/>
  </g>
 </g>
</svg>
